<?xml version="1.0" encoding="iso-8859-1"?>
<!-- Generator: Adobe Illustrator 19.0.0, SVG Export Plug-In . SVG Version: 6.00 Build 0)  -->
<svg xmlns="http://www.w3.org/2000/svg" xmlns:xlink="http://www.w3.org/1999/xlink" version="1.1" id="Layer_1" x="0px" y="0px" viewBox="0 0 512 512" style="enable-background:new 0 0 512 512;" xml:space="preserve" width="512px" height="512px">
<g>
	<g>
		<path d="M263.176,259.021c-16.073,0-29.149,13.077-29.149,29.148c0,16.072,13.075,29.148,29.149,29.148    s29.148-13.077,29.148-29.148S279.249,259.021,263.176,259.021z M263.176,297.886c-5.358,0-9.716-4.358-9.716-9.716    s4.358-9.716,9.716-9.716s9.716,4.359,9.716,9.716C272.892,293.528,268.534,297.886,263.176,297.886z" fill="#FFFFFF"/>
	</g>
</g>
<g>
	<g>
		<path d="M390.549,276.571c-0.795-2.073-1.641-4.151-2.512-6.178c-2.117-4.933-7.833-7.215-12.761-5.094    c-4.931,2.118-7.209,7.831-5.093,12.762c0.772,1.797,1.521,3.64,2.227,5.477c1.485,3.863,5.166,6.235,9.071,6.235    c1.158,0,2.337-0.209,3.482-0.649C389.972,287.201,392.474,281.579,390.549,276.571z" fill="#FFFFFF"/>
	</g>
</g>
<g>
	<g>
		<path d="M454.024,181.096l-44.001-45.692c-1.794-1.863-4.258-2.936-6.844-2.976l-52.204-0.829    c-4.506-1.104-21.767-5.248-36.129-7.516c-3.73-0.588-7.642-1.823-11.368-3.306c6.214-5.505,10.144-13.535,10.144-22.472    c0-15.507-11.817-28.304-26.918-29.864l9.574-43.645c1.332-6.073-0.139-12.334-4.034-17.177C288.348,2.778,282.545,0,276.328,0    h-98.409c-6.277,0-12.112,2.822-16.008,7.742c-3.897,4.92-5.308,11.247-3.871,17.357l10.276,43.672    c-14.007,2.534-24.667,14.809-24.667,29.536c0,14.441,10.25,26.53,23.855,29.384v48.77    c-67.428,25.368-112.245,89.665-112.245,162.164C55.258,434.224,133.034,512,228.633,512s173.375-77.776,173.375-173.375    c0-5.367-4.35-9.716-9.716-9.716s-9.716,4.349-9.716,9.716c0,2.226-0.058,4.436-0.152,6.639    c-4.824,1.777-13.828,4.572-24.469,5.332c-8.918,0.63-17.775-0.786-23.832-2.151c-0.1-2.815-0.662-5.664-1.709-8.579    c-5.292-14.727-21.527-22.424-36.192-17.152c-7.114,2.557-12.796,7.746-16.002,14.61c-0.878,1.881-1.539,3.828-1.986,5.808    c-24.301,3.371-42.694,1.578-57.674,0.11c-1.412-0.137-2.796-0.273-4.151-0.403c-16.284-1.54-29.612-4.326-42.501-7.018    c-23.474-4.905-43.747-9.141-70.64-3.158c-9.759,2.171-19.304,5.498-28.528,9.877c-0.032-1.302-0.049-2.608-0.049-3.916    c0-66.466,42.43-125.167,105.582-146.071c3.977-1.318,6.663-5.034,6.663-9.224v-54.58h83.396v54.58    c0,4.19,2.686,7.908,6.663,9.224c29.603,9.798,55.277,28.148,74.25,53.063c3.252,4.269,9.35,5.096,13.617,1.843    c4.27-3.25,5.095-9.347,1.844-13.617c-19.921-26.161-46.411-45.893-76.94-57.382V135.96c6.556,3.101,14.398,6.109,22.05,7.317    c9.797,1.547,21.37,4.103,28.586,5.78l2.151,40.143c0.133,2.477,1.207,4.809,3.004,6.519l52.463,49.924    c1.811,1.723,4.212,2.676,6.698,2.676c0.187,0,0.374-0.005,0.561-0.017c2.683-0.154,5.183-1.415,6.904-3.48l42.309-50.77    C457.661,190.249,457.462,184.665,454.024,181.096z M107.488,351.634c22.802-5.073,40.297-1.419,62.446,3.21    c12.786,2.673,27.279,5.699,44.645,7.343c1.334,0.127,2.696,0.259,4.086,0.396c5.624,0.551,11.707,1.141,18.365,1.522    l-45.843,16.747c-7.54-9.163-20.274-13.103-32.018-8.882c-7.256,2.607-13.053,7.899-16.324,14.898    c-3.259,6.979-3.617,14.82-1.005,22.093c1.577,4.38,4.129,8.238,7.439,11.338c-0.425,3.978,0.114,8.015,1.617,12.194    c4.161,11.58,15.089,18.813,26.7,18.812c3.153,0,6.359-0.534,9.491-1.658c14.657-5.269,22.277-21.537,16.985-36.263    c-1.814-5.05-7.382-7.671-12.429-5.858c-5.05,1.815-7.673,7.38-5.858,12.43c1.669,4.644-0.696,9.761-5.269,11.405    c-4.58,1.645-9.664-0.794-11.333-5.437c-0.551-1.531-0.697-2.634-0.579-3.633c1.157-1.569,1.84-3.482,1.891-5.514    c0.098-3.824-2.056-7.352-5.505-9.009c-2.283-1.097-4.011-3.011-4.865-5.384c-0.864-2.402-0.747-4.993,0.325-7.29    c1.062-2.275,2.941-3.993,5.289-4.836c4.867-1.744,10.271,0.846,12.048,5.783c0.874,2.433,2.683,4.416,5.025,5.512    c2.341,1.096,5.021,1.211,7.452,0.326l101.45-37.06c5.023-1.834,7.619-7.382,5.809-12.413c-0.812-2.261-0.705-4.697,0.304-6.858    c0.999-2.138,2.762-3.752,4.966-4.545c4.581-1.647,9.663,0.794,11.332,5.437c0.542,1.509,0.684,2.586,0.557,3.583    c-1.171,1.579-1.86,3.509-1.91,5.558c-0.089,3.826,2.074,7.349,5.528,8.997c2.287,1.091,4.019,3.008,4.878,5.402    c0.864,2.403,0.75,4.993-0.323,7.288c-1.062,2.275-2.939,3.991-5.287,4.833c-4.874,1.752-10.274-0.846-12.051-5.782    c-1.816-5.049-7.383-7.671-12.432-5.853c-5.049,1.816-7.669,7.382-5.853,12.432c5.402,15.015,21.957,22.859,36.905,17.492    c7.257-2.608,13.055-7.899,16.324-14.899c2.349-5.03,3.165-10.508,2.473-15.896c3.335,0.36,6.876,0.588,10.522,0.588    c1.937,0,3.903-0.065,5.88-0.206c7.886-0.564,14.989-2.017,20.721-3.577c-13.114,71.673-76.023,126.167-151.426,126.167    c-76.474,0-140.09-56.054-151.949-129.231C86.551,357.922,96.89,353.991,107.488,351.634z M177.143,19.807    c0.298-0.374,0.658-0.374,0.776-0.374h98.409c0.117,0,0.474,0,0.771,0.369c0.297,0.368,0.22,0.718,0.196,0.832l-10.452,47.649    h-78.678l-11.209-47.635C176.929,20.534,176.846,20.182,177.143,19.807z M283.594,108.899H173.672    c-5.84,0-10.592-4.752-10.592-10.592c0-5.84,4.752-10.592,10.592-10.592h109.922c5.84,0,10.592,4.752,10.592,10.592    C294.186,104.147,289.434,108.899,283.594,108.899z M403.896,224.413l-42.147-40.107l-1.775-33.128l38.854,0.617l35.16,36.511    L403.896,224.413z" fill="#FFFFFF"/>
	</g>
</g>
<g>
</g>
<g>
</g>
<g>
</g>
<g>
</g>
<g>
</g>
<g>
</g>
<g>
</g>
<g>
</g>
<g>
</g>
<g>
</g>
<g>
</g>
<g>
</g>
<g>
</g>
<g>
</g>
<g>
</g>
</svg>
